<mxfile host="app.diagrams.net" agent="Mozilla/5.0 (Windows NT 10.0; Win64; x64) AppleWebKit/537.36 (KHTML, like Gecko) Chrome/137.0.0.0 Safari/537.36" version="26.0.16">
  <diagram id="controleFinanceiroDiagram" name="Diagrama Controle Financeiro">
    <mxGraphModel dx="2785" dy="2064" grid="1" gridSize="10" guides="1" tooltips="1" connect="1" arrows="1" fold="1" page="1" pageScale="1" pageWidth="850" pageHeight="1100" math="0" shadow="0">
      <root>
        <mxCell id="0" />
        <mxCell id="1" parent="0" />
        <mxCell id="g5aZ5ZV1K4YW8L3u5yzm-28" value="Lancamento" style="swimlane;fontStyle=1;align=center;verticalAlign=top;childLayout=stackLayout;horizontal=1;startSize=26;horizontalStack=0;resizeParent=1;resizeParentMax=0;resizeLast=0;collapsible=1;marginBottom=0;whiteSpace=wrap;html=1;" vertex="1" parent="1">
          <mxGeometry x="360" y="-90" width="200" height="216" as="geometry" />
        </mxCell>
        <mxCell id="g5aZ5ZV1K4YW8L3u5yzm-29" value="- valor: double" style="text;strokeColor=none;fillColor=none;align=left;verticalAlign=top;spacingLeft=4;spacingRight=4;overflow=hidden;rotatable=0;points=[[0,0.5],[1,0.5]];portConstraint=eastwest;whiteSpace=wrap;html=1;" vertex="1" parent="g5aZ5ZV1K4YW8L3u5yzm-28">
          <mxGeometry y="26" width="200" height="26" as="geometry" />
        </mxCell>
        <mxCell id="g5aZ5ZV1K4YW8L3u5yzm-32" value="- data : LocalDate" style="text;strokeColor=none;fillColor=none;align=left;verticalAlign=top;spacingLeft=4;spacingRight=4;overflow=hidden;rotatable=0;points=[[0,0.5],[1,0.5]];portConstraint=eastwest;whiteSpace=wrap;html=1;" vertex="1" parent="g5aZ5ZV1K4YW8L3u5yzm-28">
          <mxGeometry y="52" width="200" height="26" as="geometry" />
        </mxCell>
        <mxCell id="g5aZ5ZV1K4YW8L3u5yzm-30" value="" style="line;strokeWidth=1;fillColor=none;align=left;verticalAlign=middle;spacingTop=-1;spacingLeft=3;spacingRight=3;rotatable=0;labelPosition=right;points=[];portConstraint=eastwest;strokeColor=inherit;" vertex="1" parent="g5aZ5ZV1K4YW8L3u5yzm-28">
          <mxGeometry y="78" width="200" height="8" as="geometry" />
        </mxCell>
        <mxCell id="g5aZ5ZV1K4YW8L3u5yzm-31" value="+ getValor() : double" style="text;strokeColor=none;fillColor=none;align=left;verticalAlign=top;spacingLeft=4;spacingRight=4;overflow=hidden;rotatable=0;points=[[0,0.5],[1,0.5]];portConstraint=eastwest;whiteSpace=wrap;html=1;" vertex="1" parent="g5aZ5ZV1K4YW8L3u5yzm-28">
          <mxGeometry y="86" width="200" height="26" as="geometry" />
        </mxCell>
        <mxCell id="g5aZ5ZV1K4YW8L3u5yzm-36" value="+ setValor(valor : double) : void" style="text;strokeColor=none;fillColor=none;align=left;verticalAlign=top;spacingLeft=4;spacingRight=4;overflow=hidden;rotatable=0;points=[[0,0.5],[1,0.5]];portConstraint=eastwest;whiteSpace=wrap;html=1;" vertex="1" parent="g5aZ5ZV1K4YW8L3u5yzm-28">
          <mxGeometry y="112" width="200" height="26" as="geometry" />
        </mxCell>
        <mxCell id="g5aZ5ZV1K4YW8L3u5yzm-35" value="+ getData() : LocalDate" style="text;strokeColor=none;fillColor=none;align=left;verticalAlign=top;spacingLeft=4;spacingRight=4;overflow=hidden;rotatable=0;points=[[0,0.5],[1,0.5]];portConstraint=eastwest;whiteSpace=wrap;html=1;" vertex="1" parent="g5aZ5ZV1K4YW8L3u5yzm-28">
          <mxGeometry y="138" width="200" height="26" as="geometry" />
        </mxCell>
        <mxCell id="g5aZ5ZV1K4YW8L3u5yzm-34" value="+ setdata(valor : LocalDate) : void" style="text;strokeColor=none;fillColor=none;align=left;verticalAlign=top;spacingLeft=4;spacingRight=4;overflow=hidden;rotatable=0;points=[[0,0.5],[1,0.5]];portConstraint=eastwest;whiteSpace=wrap;html=1;" vertex="1" parent="g5aZ5ZV1K4YW8L3u5yzm-28">
          <mxGeometry y="164" width="200" height="26" as="geometry" />
        </mxCell>
        <mxCell id="g5aZ5ZV1K4YW8L3u5yzm-33" value="+ toString() : String" style="text;strokeColor=none;fillColor=none;align=left;verticalAlign=top;spacingLeft=4;spacingRight=4;overflow=hidden;rotatable=0;points=[[0,0.5],[1,0.5]];portConstraint=eastwest;whiteSpace=wrap;html=1;" vertex="1" parent="g5aZ5ZV1K4YW8L3u5yzm-28">
          <mxGeometry y="190" width="200" height="26" as="geometry" />
        </mxCell>
        <mxCell id="g5aZ5ZV1K4YW8L3u5yzm-115" style="edgeStyle=orthogonalEdgeStyle;rounded=0;orthogonalLoop=1;jettySize=auto;html=1;" edge="1" parent="1" source="g5aZ5ZV1K4YW8L3u5yzm-38" target="g5aZ5ZV1K4YW8L3u5yzm-63">
          <mxGeometry relative="1" as="geometry" />
        </mxCell>
        <mxCell id="g5aZ5ZV1K4YW8L3u5yzm-124" style="edgeStyle=orthogonalEdgeStyle;rounded=0;orthogonalLoop=1;jettySize=auto;html=1;entryX=0;entryY=0.5;entryDx=0;entryDy=0;endArrow=block;endFill=0;" edge="1" parent="1" source="g5aZ5ZV1K4YW8L3u5yzm-38" target="g5aZ5ZV1K4YW8L3u5yzm-36">
          <mxGeometry relative="1" as="geometry" />
        </mxCell>
        <mxCell id="g5aZ5ZV1K4YW8L3u5yzm-38" value="Receita" style="swimlane;fontStyle=1;align=center;verticalAlign=top;childLayout=stackLayout;horizontal=1;startSize=26;horizontalStack=0;resizeParent=1;resizeParentMax=0;resizeLast=0;collapsible=1;marginBottom=0;whiteSpace=wrap;html=1;" vertex="1" parent="1">
          <mxGeometry x="40" y="-40" width="240" height="138" as="geometry" />
        </mxCell>
        <mxCell id="g5aZ5ZV1K4YW8L3u5yzm-39" value="- tipo :&amp;nbsp; CategoriasReceitas" style="text;strokeColor=none;fillColor=none;align=left;verticalAlign=top;spacingLeft=4;spacingRight=4;overflow=hidden;rotatable=0;points=[[0,0.5],[1,0.5]];portConstraint=eastwest;whiteSpace=wrap;html=1;" vertex="1" parent="g5aZ5ZV1K4YW8L3u5yzm-38">
          <mxGeometry y="26" width="240" height="26" as="geometry" />
        </mxCell>
        <mxCell id="g5aZ5ZV1K4YW8L3u5yzm-40" value="" style="line;strokeWidth=1;fillColor=none;align=left;verticalAlign=middle;spacingTop=-1;spacingLeft=3;spacingRight=3;rotatable=0;labelPosition=right;points=[];portConstraint=eastwest;strokeColor=inherit;" vertex="1" parent="g5aZ5ZV1K4YW8L3u5yzm-38">
          <mxGeometry y="52" width="240" height="8" as="geometry" />
        </mxCell>
        <mxCell id="g5aZ5ZV1K4YW8L3u5yzm-41" value="+ getTipo() : CategoriasReceitas" style="text;strokeColor=none;fillColor=none;align=left;verticalAlign=top;spacingLeft=4;spacingRight=4;overflow=hidden;rotatable=0;points=[[0,0.5],[1,0.5]];portConstraint=eastwest;whiteSpace=wrap;html=1;" vertex="1" parent="g5aZ5ZV1K4YW8L3u5yzm-38">
          <mxGeometry y="60" width="240" height="26" as="geometry" />
        </mxCell>
        <mxCell id="g5aZ5ZV1K4YW8L3u5yzm-50" value="+ setTipo(tipo : CategoriasReceitas) : void" style="text;strokeColor=none;fillColor=none;align=left;verticalAlign=top;spacingLeft=4;spacingRight=4;overflow=hidden;rotatable=0;points=[[0,0.5],[1,0.5]];portConstraint=eastwest;whiteSpace=wrap;html=1;" vertex="1" parent="g5aZ5ZV1K4YW8L3u5yzm-38">
          <mxGeometry y="86" width="240" height="26" as="geometry" />
        </mxCell>
        <mxCell id="g5aZ5ZV1K4YW8L3u5yzm-49" value="+ toString() : String" style="text;strokeColor=none;fillColor=none;align=left;verticalAlign=top;spacingLeft=4;spacingRight=4;overflow=hidden;rotatable=0;points=[[0,0.5],[1,0.5]];portConstraint=eastwest;whiteSpace=wrap;html=1;" vertex="1" parent="g5aZ5ZV1K4YW8L3u5yzm-38">
          <mxGeometry y="112" width="240" height="26" as="geometry" />
        </mxCell>
        <mxCell id="g5aZ5ZV1K4YW8L3u5yzm-123" style="edgeStyle=orthogonalEdgeStyle;rounded=0;orthogonalLoop=1;jettySize=auto;html=1;" edge="1" parent="1" source="g5aZ5ZV1K4YW8L3u5yzm-51" target="g5aZ5ZV1K4YW8L3u5yzm-62">
          <mxGeometry relative="1" as="geometry" />
        </mxCell>
        <mxCell id="g5aZ5ZV1K4YW8L3u5yzm-125" style="edgeStyle=orthogonalEdgeStyle;rounded=0;orthogonalLoop=1;jettySize=auto;html=1;entryX=1;entryY=0.5;entryDx=0;entryDy=0;endArrow=block;endFill=0;" edge="1" parent="1" source="g5aZ5ZV1K4YW8L3u5yzm-51" target="g5aZ5ZV1K4YW8L3u5yzm-36">
          <mxGeometry relative="1" as="geometry" />
        </mxCell>
        <mxCell id="g5aZ5ZV1K4YW8L3u5yzm-51" value="Despesa" style="swimlane;fontStyle=1;align=center;verticalAlign=top;childLayout=stackLayout;horizontal=1;startSize=26;horizontalStack=0;resizeParent=1;resizeParentMax=0;resizeLast=0;collapsible=1;marginBottom=0;whiteSpace=wrap;html=1;" vertex="1" parent="1">
          <mxGeometry x="640" y="-40" width="280" height="138" as="geometry" />
        </mxCell>
        <mxCell id="g5aZ5ZV1K4YW8L3u5yzm-52" value="- tipo :&amp;nbsp; CategoriasDespesas" style="text;strokeColor=none;fillColor=none;align=left;verticalAlign=top;spacingLeft=4;spacingRight=4;overflow=hidden;rotatable=0;points=[[0,0.5],[1,0.5]];portConstraint=eastwest;whiteSpace=wrap;html=1;" vertex="1" parent="g5aZ5ZV1K4YW8L3u5yzm-51">
          <mxGeometry y="26" width="280" height="26" as="geometry" />
        </mxCell>
        <mxCell id="g5aZ5ZV1K4YW8L3u5yzm-53" value="" style="line;strokeWidth=1;fillColor=none;align=left;verticalAlign=middle;spacingTop=-1;spacingLeft=3;spacingRight=3;rotatable=0;labelPosition=right;points=[];portConstraint=eastwest;strokeColor=inherit;" vertex="1" parent="g5aZ5ZV1K4YW8L3u5yzm-51">
          <mxGeometry y="52" width="280" height="8" as="geometry" />
        </mxCell>
        <mxCell id="g5aZ5ZV1K4YW8L3u5yzm-54" value="+ getTipo() : CategoriasDespesas" style="text;strokeColor=none;fillColor=none;align=left;verticalAlign=top;spacingLeft=4;spacingRight=4;overflow=hidden;rotatable=0;points=[[0,0.5],[1,0.5]];portConstraint=eastwest;whiteSpace=wrap;html=1;" vertex="1" parent="g5aZ5ZV1K4YW8L3u5yzm-51">
          <mxGeometry y="60" width="280" height="26" as="geometry" />
        </mxCell>
        <mxCell id="g5aZ5ZV1K4YW8L3u5yzm-55" value="+ setTipo(tipo :&amp;nbsp; CategoriasDespesas) : void" style="text;strokeColor=none;fillColor=none;align=left;verticalAlign=top;spacingLeft=4;spacingRight=4;overflow=hidden;rotatable=0;points=[[0,0.5],[1,0.5]];portConstraint=eastwest;whiteSpace=wrap;html=1;" vertex="1" parent="g5aZ5ZV1K4YW8L3u5yzm-51">
          <mxGeometry y="86" width="280" height="26" as="geometry" />
        </mxCell>
        <mxCell id="g5aZ5ZV1K4YW8L3u5yzm-56" value="+ toString() : String" style="text;strokeColor=none;fillColor=none;align=left;verticalAlign=top;spacingLeft=4;spacingRight=4;overflow=hidden;rotatable=0;points=[[0,0.5],[1,0.5]];portConstraint=eastwest;whiteSpace=wrap;html=1;" vertex="1" parent="g5aZ5ZV1K4YW8L3u5yzm-51">
          <mxGeometry y="112" width="280" height="26" as="geometry" />
        </mxCell>
        <mxCell id="g5aZ5ZV1K4YW8L3u5yzm-62" value="&lt;p style=&quot;margin:0px;margin-top:4px;text-align:center;&quot;&gt;&lt;i&gt;&amp;lt;&amp;lt;enum&amp;gt;&amp;gt;&lt;/i&gt;&lt;br&gt;&lt;b&gt;CategoriasDespesas&lt;/b&gt;&lt;/p&gt;&lt;hr size=&quot;1&quot; style=&quot;border-style:solid;&quot;&gt;&lt;p style=&quot;margin:0px;margin-left:4px;&quot;&gt;&lt;/p&gt;&lt;p style=&quot;margin:0px;margin-left:4px;&quot;&gt;ALIMENTACAO&lt;/p&gt;&lt;p style=&quot;margin:0px;margin-left:4px;&quot;&gt;&lt;span style=&quot;background-color: transparent; color: light-dark(rgb(0, 0, 0), rgb(255, 255, 255));&quot;&gt;TRANSPORTE&lt;/span&gt;&lt;/p&gt;&lt;p style=&quot;margin:0px;margin-left:4px;&quot;&gt;&lt;span style=&quot;background-color: transparent; color: light-dark(rgb(0, 0, 0), rgb(255, 255, 255));&quot;&gt;RESIDENCIA&lt;/span&gt;&lt;/p&gt;&lt;p style=&quot;margin:0px;margin-left:4px;&quot;&gt;&lt;span style=&quot;background-color: transparent; color: light-dark(rgb(0, 0, 0), rgb(255, 255, 255));&quot;&gt;SAUDE&lt;/span&gt;&lt;/p&gt;&lt;p style=&quot;margin:0px;margin-left:4px;&quot;&gt;&lt;span style=&quot;background-color: transparent; color: light-dark(rgb(0, 0, 0), rgb(255, 255, 255));&quot;&gt;EDUCACAO&lt;/span&gt;&lt;/p&gt;&lt;p style=&quot;margin:0px;margin-left:4px;&quot;&gt;&lt;span style=&quot;background-color: transparent; color: light-dark(rgb(0, 0, 0), rgb(255, 255, 255));&quot;&gt;ENTRETENIMENTO&lt;/span&gt;&lt;/p&gt;&lt;p style=&quot;margin:0px;margin-left:4px;&quot;&gt;&lt;span style=&quot;background-color: transparent; color: light-dark(rgb(0, 0, 0), rgb(255, 255, 255));&quot;&gt;V&lt;/span&gt;&lt;span style=&quot;background-color: transparent; color: light-dark(rgb(0, 0, 0), rgb(255, 255, 255));&quot;&gt;ESTUARIO&lt;/span&gt;&lt;/p&gt;&lt;p style=&quot;margin:0px;margin-left:4px;&quot;&gt;&lt;span style=&quot;background-color: transparent; color: light-dark(rgb(0, 0, 0), rgb(255, 255, 255));&quot;&gt;OUTRAS_DESPESAS&lt;/span&gt;&lt;/p&gt;&lt;p style=&quot;margin:0px;margin-left:4px;&quot;&gt;- descricao : String&lt;span style=&quot;background-color: transparent; color: light-dark(rgb(0, 0, 0), rgb(255, 255, 255));&quot;&gt;&lt;/span&gt;&lt;/p&gt;&lt;p style=&quot;margin:0px;margin-left:4px;&quot;&gt;&lt;span style=&quot;background-color: transparent; color: light-dark(rgb(0, 0, 0), rgb(255, 255, 255));&quot;&gt;+ getDescricao() : String&lt;/span&gt;&lt;/p&gt;&lt;p style=&quot;margin:0px;margin-left:4px;&quot;&gt;&lt;span style=&quot;background-color: transparent; color: light-dark(rgb(0, 0, 0), rgb(255, 255, 255));&quot;&gt;+ toString() : String&lt;/span&gt;&lt;/p&gt;&lt;p style=&quot;margin:0px;margin-left:4px;&quot;&gt;&lt;span style=&quot;background-color: transparent; color: light-dark(rgb(0, 0, 0), rgb(255, 255, 255));&quot;&gt;&lt;br&gt;&lt;/span&gt;&lt;/p&gt;" style="verticalAlign=top;align=left;overflow=fill;html=1;whiteSpace=wrap;" vertex="1" parent="1">
          <mxGeometry x="960" y="-90" width="250" height="210" as="geometry" />
        </mxCell>
        <mxCell id="g5aZ5ZV1K4YW8L3u5yzm-63" value="&lt;p style=&quot;margin:0px;margin-top:4px;text-align:center;&quot;&gt;&lt;i&gt;&amp;lt;&amp;lt;enum&amp;gt;&amp;gt;&lt;/i&gt;&lt;br&gt;&lt;b&gt;CategoriasReceitas&lt;/b&gt;&lt;/p&gt;&lt;hr size=&quot;1&quot; style=&quot;border-style:solid;&quot;&gt;&lt;p style=&quot;margin:0px;margin-left:4px;&quot;&gt;&lt;/p&gt;&lt;p style=&quot;margin:0px;margin-left:4px;&quot;&gt;SALARIO&lt;/p&gt;&lt;p style=&quot;margin:0px;margin-left:4px;&quot;&gt;&lt;span style=&quot;background-color: transparent; color: light-dark(rgb(0, 0, 0), rgb(255, 255, 255));&quot;&gt;DECIMO_TERCEIRO&lt;/span&gt;&lt;/p&gt;&lt;p style=&quot;margin:0px;margin-left:4px;&quot;&gt;&lt;span style=&quot;background-color: transparent; color: light-dark(rgb(0, 0, 0), rgb(255, 255, 255));&quot;&gt;FERIAS&lt;/span&gt;&lt;/p&gt;&lt;p style=&quot;margin:0px;margin-left:4px;&quot;&gt;&lt;span style=&quot;background-color: transparent; color: light-dark(rgb(0, 0, 0), rgb(255, 255, 255));&quot;&gt;FREELANCE&lt;/span&gt;&lt;/p&gt;&lt;p style=&quot;margin:0px;margin-left:4px;&quot;&gt;&lt;span style=&quot;background-color: transparent; color: light-dark(rgb(0, 0, 0), rgb(255, 255, 255));&quot;&gt;VENDAS&lt;/span&gt;&lt;/p&gt;&lt;p style=&quot;margin:0px;margin-left:4px;&quot;&gt;INVESTIMENTOS&lt;/p&gt;&lt;p style=&quot;margin:0px;margin-left:4px;&quot;&gt;OUTRAS_RECEITAS&lt;/p&gt;&lt;p style=&quot;margin:0px;margin-left:4px;&quot;&gt;- descricao : String&lt;span style=&quot;background-color: transparent; color: light-dark(rgb(0, 0, 0), rgb(255, 255, 255));&quot;&gt;&lt;/span&gt;&lt;/p&gt;&lt;p style=&quot;margin:0px;margin-left:4px;&quot;&gt;&lt;span style=&quot;background-color: transparent; color: light-dark(rgb(0, 0, 0), rgb(255, 255, 255));&quot;&gt;+ getDescricao() : String&lt;/span&gt;&lt;/p&gt;&lt;p style=&quot;margin:0px;margin-left:4px;&quot;&gt;&lt;span style=&quot;background-color: transparent; color: light-dark(rgb(0, 0, 0), rgb(255, 255, 255));&quot;&gt;+ toString() : String&lt;/span&gt;&lt;/p&gt;&lt;p style=&quot;margin:0px;margin-left:4px;&quot;&gt;&lt;span style=&quot;background-color: transparent; color: light-dark(rgb(0, 0, 0), rgb(255, 255, 255));&quot;&gt;&lt;br&gt;&lt;/span&gt;&lt;/p&gt;" style="verticalAlign=top;align=left;overflow=fill;html=1;whiteSpace=wrap;" vertex="1" parent="1">
          <mxGeometry x="-250" y="-80" width="250" height="200" as="geometry" />
        </mxCell>
        <mxCell id="g5aZ5ZV1K4YW8L3u5yzm-126" style="edgeStyle=orthogonalEdgeStyle;rounded=0;orthogonalLoop=1;jettySize=auto;html=1;" edge="1" parent="1" source="g5aZ5ZV1K4YW8L3u5yzm-64" target="g5aZ5ZV1K4YW8L3u5yzm-38">
          <mxGeometry relative="1" as="geometry">
            <Array as="points">
              <mxPoint x="275" y="-190" />
              <mxPoint x="160" y="-190" />
            </Array>
          </mxGeometry>
        </mxCell>
        <mxCell id="g5aZ5ZV1K4YW8L3u5yzm-127" style="edgeStyle=orthogonalEdgeStyle;rounded=0;orthogonalLoop=1;jettySize=auto;html=1;entryX=0.5;entryY=0;entryDx=0;entryDy=0;" edge="1" parent="1" source="g5aZ5ZV1K4YW8L3u5yzm-64" target="g5aZ5ZV1K4YW8L3u5yzm-51">
          <mxGeometry relative="1" as="geometry">
            <Array as="points">
              <mxPoint x="275" y="-190" />
              <mxPoint x="780" y="-190" />
            </Array>
          </mxGeometry>
        </mxCell>
        <mxCell id="g5aZ5ZV1K4YW8L3u5yzm-64" value="Controle Financeiro" style="swimlane;fontStyle=1;align=center;verticalAlign=top;childLayout=stackLayout;horizontal=1;startSize=26;horizontalStack=0;resizeParent=1;resizeParentMax=0;resizeLast=0;collapsible=1;marginBottom=0;whiteSpace=wrap;html=1;" vertex="1" parent="1">
          <mxGeometry x="20" y="-780" width="510" height="528" as="geometry" />
        </mxCell>
        <mxCell id="g5aZ5ZV1K4YW8L3u5yzm-65" value="- receitas : List&amp;lt;receita&amp;gt;" style="text;strokeColor=none;fillColor=none;align=left;verticalAlign=top;spacingLeft=4;spacingRight=4;overflow=hidden;rotatable=0;points=[[0,0.5],[1,0.5]];portConstraint=eastwest;whiteSpace=wrap;html=1;" vertex="1" parent="g5aZ5ZV1K4YW8L3u5yzm-64">
          <mxGeometry y="26" width="510" height="26" as="geometry" />
        </mxCell>
        <mxCell id="g5aZ5ZV1K4YW8L3u5yzm-74" value="- despesas : List&amp;lt;despesa&amp;gt;" style="text;strokeColor=none;fillColor=none;align=left;verticalAlign=top;spacingLeft=4;spacingRight=4;overflow=hidden;rotatable=0;points=[[0,0.5],[1,0.5]];portConstraint=eastwest;whiteSpace=wrap;html=1;" vertex="1" parent="g5aZ5ZV1K4YW8L3u5yzm-64">
          <mxGeometry y="52" width="510" height="26" as="geometry" />
        </mxCell>
        <mxCell id="g5aZ5ZV1K4YW8L3u5yzm-73" value="- gerenciador : Gerenciador Arquivos" style="text;strokeColor=none;fillColor=none;align=left;verticalAlign=top;spacingLeft=4;spacingRight=4;overflow=hidden;rotatable=0;points=[[0,0.5],[1,0.5]];portConstraint=eastwest;whiteSpace=wrap;html=1;" vertex="1" parent="g5aZ5ZV1K4YW8L3u5yzm-64">
          <mxGeometry y="78" width="510" height="26" as="geometry" />
        </mxCell>
        <mxCell id="g5aZ5ZV1K4YW8L3u5yzm-72" value="- FORMATO_DATA : DateTimeFormatter" style="text;strokeColor=none;fillColor=none;align=left;verticalAlign=top;spacingLeft=4;spacingRight=4;overflow=hidden;rotatable=0;points=[[0,0.5],[1,0.5]];portConstraint=eastwest;whiteSpace=wrap;html=1;" vertex="1" parent="g5aZ5ZV1K4YW8L3u5yzm-64">
          <mxGeometry y="104" width="510" height="26" as="geometry" />
        </mxCell>
        <mxCell id="g5aZ5ZV1K4YW8L3u5yzm-66" value="" style="line;strokeWidth=1;fillColor=none;align=left;verticalAlign=middle;spacingTop=-1;spacingLeft=3;spacingRight=3;rotatable=0;labelPosition=right;points=[];portConstraint=eastwest;strokeColor=inherit;" vertex="1" parent="g5aZ5ZV1K4YW8L3u5yzm-64">
          <mxGeometry y="130" width="510" height="8" as="geometry" />
        </mxCell>
        <mxCell id="g5aZ5ZV1K4YW8L3u5yzm-67" value="+ carregarDados() : void" style="text;strokeColor=none;fillColor=none;align=left;verticalAlign=top;spacingLeft=4;spacingRight=4;overflow=hidden;rotatable=0;points=[[0,0.5],[1,0.5]];portConstraint=eastwest;whiteSpace=wrap;html=1;" vertex="1" parent="g5aZ5ZV1K4YW8L3u5yzm-64">
          <mxGeometry y="138" width="510" height="26" as="geometry" />
        </mxCell>
        <mxCell id="g5aZ5ZV1K4YW8L3u5yzm-84" value="+ incluirReceita(valor : double, data : LocalDate, tipo : CategoriasReceitas) : boolean" style="text;strokeColor=none;fillColor=none;align=left;verticalAlign=top;spacingLeft=4;spacingRight=4;overflow=hidden;rotatable=0;points=[[0,0.5],[1,0.5]];portConstraint=eastwest;whiteSpace=wrap;html=1;" vertex="1" parent="g5aZ5ZV1K4YW8L3u5yzm-64">
          <mxGeometry y="164" width="510" height="26" as="geometry" />
        </mxCell>
        <mxCell id="g5aZ5ZV1K4YW8L3u5yzm-83" value="+ incluirDespesa(valor : double, data : LocalDate, tipo : CategoriasDespesas) : boolean" style="text;strokeColor=none;fillColor=none;align=left;verticalAlign=top;spacingLeft=4;spacingRight=4;overflow=hidden;rotatable=0;points=[[0,0.5],[1,0.5]];portConstraint=eastwest;whiteSpace=wrap;html=1;" vertex="1" parent="g5aZ5ZV1K4YW8L3u5yzm-64">
          <mxGeometry y="190" width="510" height="26" as="geometry" />
        </mxCell>
        <mxCell id="g5aZ5ZV1K4YW8L3u5yzm-82" value="- validarLancamento(valor : double, data : LocalDate) : boolean" style="text;strokeColor=none;fillColor=none;align=left;verticalAlign=top;spacingLeft=4;spacingRight=4;overflow=hidden;rotatable=0;points=[[0,0.5],[1,0.5]];portConstraint=eastwest;whiteSpace=wrap;html=1;" vertex="1" parent="g5aZ5ZV1K4YW8L3u5yzm-64">
          <mxGeometry y="216" width="510" height="26" as="geometry" />
        </mxCell>
        <mxCell id="g5aZ5ZV1K4YW8L3u5yzm-81" value="- validarPeriodo(inicio : LocalDate, fim : LocalDate) : boolean" style="text;strokeColor=none;fillColor=none;align=left;verticalAlign=top;spacingLeft=4;spacingRight=4;overflow=hidden;rotatable=0;points=[[0,0.5],[1,0.5]];portConstraint=eastwest;whiteSpace=wrap;html=1;" vertex="1" parent="g5aZ5ZV1K4YW8L3u5yzm-64">
          <mxGeometry y="242" width="510" height="26" as="geometry" />
        </mxCell>
        <mxCell id="g5aZ5ZV1K4YW8L3u5yzm-80" value="+ getValorTotalReceitas() : double" style="text;strokeColor=none;fillColor=none;align=left;verticalAlign=top;spacingLeft=4;spacingRight=4;overflow=hidden;rotatable=0;points=[[0,0.5],[1,0.5]];portConstraint=eastwest;whiteSpace=wrap;html=1;" vertex="1" parent="g5aZ5ZV1K4YW8L3u5yzm-64">
          <mxGeometry y="268" width="510" height="26" as="geometry" />
        </mxCell>
        <mxCell id="g5aZ5ZV1K4YW8L3u5yzm-79" value="+ getValorTotalDespesas() : double" style="text;strokeColor=none;fillColor=none;align=left;verticalAlign=top;spacingLeft=4;spacingRight=4;overflow=hidden;rotatable=0;points=[[0,0.5],[1,0.5]];portConstraint=eastwest;whiteSpace=wrap;html=1;" vertex="1" parent="g5aZ5ZV1K4YW8L3u5yzm-64">
          <mxGeometry y="294" width="510" height="26" as="geometry" />
        </mxCell>
        <mxCell id="g5aZ5ZV1K4YW8L3u5yzm-78" value="+ consultarSaldo() : double" style="text;strokeColor=none;fillColor=none;align=left;verticalAlign=top;spacingLeft=4;spacingRight=4;overflow=hidden;rotatable=0;points=[[0,0.5],[1,0.5]];portConstraint=eastwest;whiteSpace=wrap;html=1;" vertex="1" parent="g5aZ5ZV1K4YW8L3u5yzm-64">
          <mxGeometry y="320" width="510" height="26" as="geometry" />
        </mxCell>
        <mxCell id="g5aZ5ZV1K4YW8L3u5yzm-77" value="+ getReceitas() : List&amp;lt;Receita&amp;gt;" style="text;strokeColor=none;fillColor=none;align=left;verticalAlign=top;spacingLeft=4;spacingRight=4;overflow=hidden;rotatable=0;points=[[0,0.5],[1,0.5]];portConstraint=eastwest;whiteSpace=wrap;html=1;" vertex="1" parent="g5aZ5ZV1K4YW8L3u5yzm-64">
          <mxGeometry y="346" width="510" height="26" as="geometry" />
        </mxCell>
        <mxCell id="g5aZ5ZV1K4YW8L3u5yzm-76" value="+ getDespesas() : List&amp;lt;Despesa&amp;gt;" style="text;strokeColor=none;fillColor=none;align=left;verticalAlign=top;spacingLeft=4;spacingRight=4;overflow=hidden;rotatable=0;points=[[0,0.5],[1,0.5]];portConstraint=eastwest;whiteSpace=wrap;html=1;" vertex="1" parent="g5aZ5ZV1K4YW8L3u5yzm-64">
          <mxGeometry y="372" width="510" height="26" as="geometry" />
        </mxCell>
        <mxCell id="g5aZ5ZV1K4YW8L3u5yzm-75" value="+ listarTodosLancamentos() : List&amp;lt;Lancamento&amp;gt;" style="text;strokeColor=none;fillColor=none;align=left;verticalAlign=top;spacingLeft=4;spacingRight=4;overflow=hidden;rotatable=0;points=[[0,0.5],[1,0.5]];portConstraint=eastwest;whiteSpace=wrap;html=1;" vertex="1" parent="g5aZ5ZV1K4YW8L3u5yzm-64">
          <mxGeometry y="398" width="510" height="26" as="geometry" />
        </mxCell>
        <mxCell id="g5aZ5ZV1K4YW8L3u5yzm-90" value="+ gerarExtrato(dataInicio : LocalDate, dataFim : LocalDate) : List&amp;lt;String&amp;gt;" style="text;strokeColor=none;fillColor=none;align=left;verticalAlign=top;spacingLeft=4;spacingRight=4;overflow=hidden;rotatable=0;points=[[0,0.5],[1,0.5]];portConstraint=eastwest;whiteSpace=wrap;html=1;" vertex="1" parent="g5aZ5ZV1K4YW8L3u5yzm-64">
          <mxGeometry y="424" width="510" height="26" as="geometry" />
        </mxCell>
        <mxCell id="g5aZ5ZV1K4YW8L3u5yzm-89" value="+ listarReceitasPorPeriodo(dataInicio : LocalDate, dataFim : LocalDate) : List&amp;lt;Receita&amp;gt;" style="text;strokeColor=none;fillColor=none;align=left;verticalAlign=top;spacingLeft=4;spacingRight=4;overflow=hidden;rotatable=0;points=[[0,0.5],[1,0.5]];portConstraint=eastwest;whiteSpace=wrap;html=1;" vertex="1" parent="g5aZ5ZV1K4YW8L3u5yzm-64">
          <mxGeometry y="450" width="510" height="26" as="geometry" />
        </mxCell>
        <mxCell id="g5aZ5ZV1K4YW8L3u5yzm-88" value="+ ListarDespesasPorPeriodo(dataInicio : LocalDate, dataFim : LocalDate) : List&amp;lt;Despesa&amp;gt;" style="text;strokeColor=none;fillColor=none;align=left;verticalAlign=top;spacingLeft=4;spacingRight=4;overflow=hidden;rotatable=0;points=[[0,0.5],[1,0.5]];portConstraint=eastwest;whiteSpace=wrap;html=1;" vertex="1" parent="g5aZ5ZV1K4YW8L3u5yzm-64">
          <mxGeometry y="476" width="510" height="26" as="geometry" />
        </mxCell>
        <mxCell id="g5aZ5ZV1K4YW8L3u5yzm-87" value="+ calcularSaldoPorPeriodo(dataInicio : LocalDate, dataFim : LocalDate) : double" style="text;strokeColor=none;fillColor=none;align=left;verticalAlign=top;spacingLeft=4;spacingRight=4;overflow=hidden;rotatable=0;points=[[0,0.5],[1,0.5]];portConstraint=eastwest;whiteSpace=wrap;html=1;" vertex="1" parent="g5aZ5ZV1K4YW8L3u5yzm-64">
          <mxGeometry y="502" width="510" height="26" as="geometry" />
        </mxCell>
        <mxCell id="g5aZ5ZV1K4YW8L3u5yzm-91" value="GerenciadorArquivos" style="swimlane;fontStyle=1;align=center;verticalAlign=top;childLayout=stackLayout;horizontal=1;startSize=26;horizontalStack=0;resizeParent=1;resizeParentMax=0;resizeLast=0;collapsible=1;marginBottom=0;whiteSpace=wrap;html=1;" vertex="1" parent="1">
          <mxGeometry x="660" y="-790" width="330" height="398" as="geometry">
            <mxRectangle x="640" y="600" width="150" height="30" as="alternateBounds" />
          </mxGeometry>
        </mxCell>
        <mxCell id="g5aZ5ZV1K4YW8L3u5yzm-95" value="- PASTA_DADOS : String" style="text;strokeColor=none;fillColor=none;align=left;verticalAlign=top;spacingLeft=4;spacingRight=4;overflow=hidden;rotatable=0;points=[[0,0.5],[1,0.5]];portConstraint=eastwest;whiteSpace=wrap;html=1;" vertex="1" parent="g5aZ5ZV1K4YW8L3u5yzm-91">
          <mxGeometry y="26" width="330" height="26" as="geometry" />
        </mxCell>
        <mxCell id="g5aZ5ZV1K4YW8L3u5yzm-96" value="- ARQUIVO_DADOS: String" style="text;strokeColor=none;fillColor=none;align=left;verticalAlign=top;spacingLeft=4;spacingRight=4;overflow=hidden;rotatable=0;points=[[0,0.5],[1,0.5]];portConstraint=eastwest;whiteSpace=wrap;html=1;" vertex="1" parent="g5aZ5ZV1K4YW8L3u5yzm-91">
          <mxGeometry y="52" width="330" height="26" as="geometry" />
        </mxCell>
        <mxCell id="g5aZ5ZV1K4YW8L3u5yzm-92" value="- FORMATO_DATA : DateTimeFormatter" style="text;strokeColor=none;fillColor=none;align=left;verticalAlign=top;spacingLeft=4;spacingRight=4;overflow=hidden;rotatable=0;points=[[0,0.5],[1,0.5]];portConstraint=eastwest;whiteSpace=wrap;html=1;" vertex="1" parent="g5aZ5ZV1K4YW8L3u5yzm-91">
          <mxGeometry y="78" width="330" height="26" as="geometry" />
        </mxCell>
        <mxCell id="g5aZ5ZV1K4YW8L3u5yzm-93" value="" style="line;strokeWidth=1;fillColor=none;align=left;verticalAlign=middle;spacingTop=-1;spacingLeft=3;spacingRight=3;rotatable=0;labelPosition=right;points=[];portConstraint=eastwest;strokeColor=inherit;" vertex="1" parent="g5aZ5ZV1K4YW8L3u5yzm-91">
          <mxGeometry y="104" width="330" height="8" as="geometry" />
        </mxCell>
        <mxCell id="g5aZ5ZV1K4YW8L3u5yzm-94" value="- inicializarSistemaArquivos() : void" style="text;strokeColor=none;fillColor=none;align=left;verticalAlign=top;spacingLeft=4;spacingRight=4;overflow=hidden;rotatable=0;points=[[0,0.5],[1,0.5]];portConstraint=eastwest;whiteSpace=wrap;html=1;" vertex="1" parent="g5aZ5ZV1K4YW8L3u5yzm-91">
          <mxGeometry y="112" width="330" height="26" as="geometry" />
        </mxCell>
        <mxCell id="g5aZ5ZV1K4YW8L3u5yzm-105" value="- criarPastaDados() : void" style="text;strokeColor=none;fillColor=none;align=left;verticalAlign=top;spacingLeft=4;spacingRight=4;overflow=hidden;rotatable=0;points=[[0,0.5],[1,0.5]];portConstraint=eastwest;whiteSpace=wrap;html=1;" vertex="1" parent="g5aZ5ZV1K4YW8L3u5yzm-91">
          <mxGeometry y="138" width="330" height="26" as="geometry" />
        </mxCell>
        <mxCell id="g5aZ5ZV1K4YW8L3u5yzm-104" value="- criarArquivoDados() : void" style="text;strokeColor=none;fillColor=none;align=left;verticalAlign=top;spacingLeft=4;spacingRight=4;overflow=hidden;rotatable=0;points=[[0,0.5],[1,0.5]];portConstraint=eastwest;whiteSpace=wrap;html=1;" vertex="1" parent="g5aZ5ZV1K4YW8L3u5yzm-91">
          <mxGeometry y="164" width="330" height="26" as="geometry" />
        </mxCell>
        <mxCell id="g5aZ5ZV1K4YW8L3u5yzm-103" value="+ adicionarReceita(receita : Receita) : void" style="text;strokeColor=none;fillColor=none;align=left;verticalAlign=top;spacingLeft=4;spacingRight=4;overflow=hidden;rotatable=0;points=[[0,0.5],[1,0.5]];portConstraint=eastwest;whiteSpace=wrap;html=1;" vertex="1" parent="g5aZ5ZV1K4YW8L3u5yzm-91">
          <mxGeometry y="190" width="330" height="26" as="geometry" />
        </mxCell>
        <mxCell id="g5aZ5ZV1K4YW8L3u5yzm-102" value="+ adicionarDespesa(despesa : Despesa) : void" style="text;strokeColor=none;fillColor=none;align=left;verticalAlign=top;spacingLeft=4;spacingRight=4;overflow=hidden;rotatable=0;points=[[0,0.5],[1,0.5]];portConstraint=eastwest;whiteSpace=wrap;html=1;" vertex="1" parent="g5aZ5ZV1K4YW8L3u5yzm-91">
          <mxGeometry y="216" width="330" height="26" as="geometry" />
        </mxCell>
        <mxCell id="g5aZ5ZV1K4YW8L3u5yzm-101" value="+ salvarLinha(String : linha) : void" style="text;strokeColor=none;fillColor=none;align=left;verticalAlign=top;spacingLeft=4;spacingRight=4;overflow=hidden;rotatable=0;points=[[0,0.5],[1,0.5]];portConstraint=eastwest;whiteSpace=wrap;html=1;" vertex="1" parent="g5aZ5ZV1K4YW8L3u5yzm-91">
          <mxGeometry y="242" width="330" height="26" as="geometry" />
        </mxCell>
        <mxCell id="g5aZ5ZV1K4YW8L3u5yzm-100" value="+ carregarReceitas() : List&amp;lt;Receita&amp;gt;" style="text;strokeColor=none;fillColor=none;align=left;verticalAlign=top;spacingLeft=4;spacingRight=4;overflow=hidden;rotatable=0;points=[[0,0.5],[1,0.5]];portConstraint=eastwest;whiteSpace=wrap;html=1;" vertex="1" parent="g5aZ5ZV1K4YW8L3u5yzm-91">
          <mxGeometry y="268" width="330" height="26" as="geometry" />
        </mxCell>
        <mxCell id="g5aZ5ZV1K4YW8L3u5yzm-99" value="+ carregarDespesas() : List&amp;lt;Despesa&amp;gt;" style="text;strokeColor=none;fillColor=none;align=left;verticalAlign=top;spacingLeft=4;spacingRight=4;overflow=hidden;rotatable=0;points=[[0,0.5],[1,0.5]];portConstraint=eastwest;whiteSpace=wrap;html=1;" vertex="1" parent="g5aZ5ZV1K4YW8L3u5yzm-91">
          <mxGeometry y="294" width="330" height="26" as="geometry" />
        </mxCell>
        <mxCell id="g5aZ5ZV1K4YW8L3u5yzm-98" value="- lerArquivoComoString(arquivo: File) : String" style="text;strokeColor=none;fillColor=none;align=left;verticalAlign=top;spacingLeft=4;spacingRight=4;overflow=hidden;rotatable=0;points=[[0,0.5],[1,0.5]];portConstraint=eastwest;whiteSpace=wrap;html=1;" vertex="1" parent="g5aZ5ZV1K4YW8L3u5yzm-91">
          <mxGeometry y="320" width="330" height="26" as="geometry" />
        </mxCell>
        <mxCell id="g5aZ5ZV1K4YW8L3u5yzm-97" value="- parseReceita(linha: String) : Receita" style="text;strokeColor=none;fillColor=none;align=left;verticalAlign=top;spacingLeft=4;spacingRight=4;overflow=hidden;rotatable=0;points=[[0,0.5],[1,0.5]];portConstraint=eastwest;whiteSpace=wrap;html=1;" vertex="1" parent="g5aZ5ZV1K4YW8L3u5yzm-91">
          <mxGeometry y="346" width="330" height="26" as="geometry" />
        </mxCell>
        <mxCell id="g5aZ5ZV1K4YW8L3u5yzm-109" value="- parseDespesa(linha: String) : Despesa" style="text;strokeColor=none;fillColor=none;align=left;verticalAlign=top;spacingLeft=4;spacingRight=4;overflow=hidden;rotatable=0;points=[[0,0.5],[1,0.5]];portConstraint=eastwest;whiteSpace=wrap;html=1;" vertex="1" parent="g5aZ5ZV1K4YW8L3u5yzm-91">
          <mxGeometry y="372" width="330" height="26" as="geometry" />
        </mxCell>
        <mxCell id="g5aZ5ZV1K4YW8L3u5yzm-128" style="edgeStyle=orthogonalEdgeStyle;rounded=0;orthogonalLoop=1;jettySize=auto;html=1;entryX=1;entryY=1.035;entryDx=0;entryDy=0;entryPerimeter=0;" edge="1" parent="1" source="g5aZ5ZV1K4YW8L3u5yzm-91" target="g5aZ5ZV1K4YW8L3u5yzm-84">
          <mxGeometry relative="1" as="geometry" />
        </mxCell>
      </root>
    </mxGraphModel>
  </diagram>
</mxfile>
